<svg id="图层_1" data-name="图层 1" xmlns="http://www.w3.org/2000/svg" viewBox="0 0 44 44"><defs><style>.cls-1{fill:#4c575f;}</style></defs><title>画板 6 副本 5</title><path class="cls-1" d="M22,44A22,22,0,1,1,44,22,22.02489,22.02489,0,0,1,22,44ZM22,1A21,21,0,1,0,43,22,21.02422,21.02422,0,0,0,22,1Z"/><path class="cls-1" d="M28.75,9.18863v4.125H26.297a2.29864,2.29864,0,0,0-1.813.562,2.58506,2.58506,0,0,0-.469,1.687v2.953h4.578l-.609,4.625H24.015v11.859H19.234v-11.859H15.25v-4.625h3.984v-3.406a6.04517,6.04517,0,0,1,1.625-4.508,5.89654,5.89654,0,0,1,4.328-1.602,25.92629,25.92629,0,0,1,3.563.187Z"/></svg>