<svg id="图层_1" data-name="图层 1" xmlns="http://www.w3.org/2000/svg" viewBox="0 0 44 44"><defs><style>.cls-1{fill:#4c575f;}</style></defs><title>画板 6 副本 4</title><path class="cls-1" d="M22,44A22,22,0,1,1,44,22,22.02489,22.02489,0,0,1,22,44ZM22,1A21,21,0,1,0,43,22,21.02422,21.02422,0,0,0,22,1Z"/><path class="cls-1" d="M33.18919,18.79865a7.38789,7.38789,0,0,0-1.98378-5.2644c.47-2.62423-.07773-3.82007-.33218-4.22766-.93974-.33218-3.26932.86068-4.54224,1.70176-2.07513-.60756-6.46091-.5481-8.1052.15712-3.03447-2.17279-4.63957-1.84161-4.63957-1.84161a6.40507,6.40507,0,0,0-.27438,4.58409,6.15448,6.15448,0,0,0-1.74262,4.55785,14.09107,14.09107,0,0,0,.09567,1.631c.85968,4.521,4.44225,6.47154,7.961,6.80771a3.16561,3.16561,0,0,0-1.25332,2.04623,4.0779,4.0779,0,0,1-3.04443.24515c-1.45827-.46073-2.01667-3.34838-4.20042-2.93647-.47236.08836-.37869.39862.03056.66436a4.3,4.3,0,0,1,1.77484,2.116,3.57948,3.57948,0,0,0,3.61778,2.45481,11.07549,11.07549,0,0,0,1.66522-.1156v2.876c0,.08072.06079.08338.15114.098.189.03056.50757.11294.67433.13752a20.204,20.204,0,0,0,3.47693.2591,9.71532,9.71532,0,0,0,4.37947-.70588c-.00731-.89356,0-.42519,0-2.95076s-.33916-3.458-1.52072-4.20208c3.42644-.35178,6.98575-1.8818,7.62686-5.90584A16.02668,16.02668,0,0,0,33.18919,18.79865Z"/></svg>