<svg id="图层_1" data-name="图层 1" xmlns="http://www.w3.org/2000/svg" viewBox="0 0 44 44"><defs><style>.cls-1{fill:#4c575f;}</style></defs><title>画板 6 副本 7</title><path class="cls-1" d="M22,44A22,22,0,1,1,44,22,22.02489,22.02489,0,0,1,22,44ZM22,1A21,21,0,1,0,43,22,21.02422,21.02422,0,0,0,22,1Z"/><path class="cls-1" d="M28.21839,29.76383l1.25033,3.70286a3.48089,3.48089,0,0,1-1.73418,1.03159,8.54461,8.54461,0,0,1-2.76577.49961,9.049,9.049,0,0,1-2.97664-.406,6.74707,6.74707,0,0,1-2.22679-1.15583,7.21745,7.21745,0,0,1-1.48394-1.65631,6.7395,6.7395,0,0,1-.86709-1.87505,6.922,6.922,0,0,1-.25812-1.84356V19.56172h-2.6249v-3.359a7.48278,7.48278,0,0,0,2.01592-1.08583A7.00877,7.00877,0,0,0,17.969,13.71082a8.21913,8.21913,0,0,0,.90647-1.59331,9.07039,9.07039,0,0,0,.53111-1.54694,12.34171,12.34171,0,0,0,.23449-1.38245.25843.25843,0,0,1,.07-.133A.16274.16274,0,0,1,19.82833,9h3.81223v6.62437h5.20255v3.93735h-5.2183v8.09344a3.6,3.6,0,0,0,.1015.875,3.0038,3.0038,0,0,0,.35174.82072,1.65713,1.65713,0,0,0,.77347.64835,2.96638,2.96638,0,0,0,1.27308.21874,5.09215,5.09215,0,0,0,2.09379-.45323Z"/></svg>