<svg id="图层_1" data-name="图层 1" xmlns="http://www.w3.org/2000/svg" viewBox="0 0 44 44"><defs><style>.cls-1{fill:#4c575f;}</style></defs><title>画板 6</title><path class="cls-1" d="M28.89544,21.76595a1.0513,1.0513,0,0,1-.6379-.29434.30629.30629,0,0,1-.04922-.36032l.09844-.16341a.39159.39159,0,0,0,.066-.09844q.03353-.066.131-.27862a2.27884,2.27884,0,0,0,.14769-.42527,4.129,4.129,0,0,0,.08168-.52371,2.17155,2.17155,0,0,0-.01673-.58972,2.50908,2.50908,0,0,0-.19694-.60545,2.023,2.023,0,0,0-.40957-.58972,2.17966,2.17966,0,0,0-1.19517-.58972,4.45493,4.45493,0,0,0-1.47278-.01673,12.42279,12.42279,0,0,0-1.391.29434q-.65464.18012-1.07994.34359l-.42527.19694a4.13515,4.13515,0,0,1-.5405.131.62066.62066,0,0,1-.32784-.01673.8711.8711,0,0,1-.18018-.09844q-.065-.04919-.04922-.2294t.03246-.31107q.01667-.13087.08168-.40957t.09844-.442a5.19894,5.19894,0,0,0-.04922-.73634,3.59809,3.59809,0,0,0-.21263-.76883,1.65185,1.65185,0,0,0-.47452-.68715,2.44051,2.44051,0,0,0-.78562-.42527,3.03349,3.03349,0,0,0-1.22765-.09844,7.18309,7.18309,0,0,0-1.70214.39278,10.51283,10.51283,0,0,0-2.32429,1.16164,13.86579,13.86579,0,0,0-2.04567,1.60364q-.8673.83478-1.58795,1.62044t-1.11346,1.27687l-.36032.52371a10.90265,10.90265,0,0,0-1.60364,2.81557,6.0052,6.0052,0,0,0-.49125,2.12744v.68715a7.03052,7.03052,0,0,0,2.79881,4.82879,10.63622,10.63622,0,0,0,2.50447,1.30933,16.35829,16.35829,0,0,0,2.76635.78562,24.33826,24.33826,0,0,0,2.79884.34359,16.91187,16.91187,0,0,0,5.02466-.376,15.18733,15.18733,0,0,0,4.84454-1.98076,8.06437,8.06437,0,0,0,3.15914-3.3718,5.166,5.166,0,0,0,.573-2.16094,3.22753,3.22753,0,0,0-.34359-1.65289A4.20427,4.20427,0,0,0,30.875,22.778a4.64266,4.64266,0,0,0-1.07994-.72065,3.703,3.703,0,0,0-.89976-.29434ZM18.912,31.94626a10.21813,10.21813,0,0,1-6.00619-1.37531,4.51276,4.51276,0,0,1-2.47094-3.89551,4.83218,4.83218,0,0,1,2.45525-4.0097,11.34437,11.34437,0,0,1,6.02292-1.84983A11.29084,11.29084,0,0,1,24.936,21.99428a4.07561,4.07561,0,0,1,2.45525,3.66611,5.32054,5.32054,0,0,1-2.50447,4.2391,10.51688,10.51688,0,0,1-5.9737,2.04567Zm-.949-9.06792a5.4261,5.4261,0,0,0-1.70214.442,3.812,3.812,0,0,0-1.17837.78562,4.99549,4.99549,0,0,0-.72065.949,3.61283,3.61283,0,0,0-.40957.99823,6.28007,6.28007,0,0,0-.14769.89976q-.03356.40848-.03246.6379l.03246.26188v.131a2.27674,2.27674,0,0,0,.066.39278,2.66759,2.66759,0,0,0,.18018.5405,2.47208,2.47208,0,0,0,.99826,1.03175,6.117,6.117,0,0,0,4.02644.6379,5.07554,5.07554,0,0,0,3.01144-1.88226,2.92823,2.92823,0,0,0,.60545-1.37531,3.8613,3.8613,0,0,0-.066-1.65289,4.20538,4.20538,0,0,0-.73634-1.522A3.31676,3.31676,0,0,0,20.33559,23.09a5.0802,5.0802,0,0,0-2.37357-.21263Zm-1.17843,6.1874a1.50149,1.50149,0,0,1-.376.01673,1.40641,1.40641,0,0,1-.32784-.066q-.14873-.05026-.29434-.11413a.67368.67368,0,0,1-.24509-.18018q-.09948-.1163-.18018-.2294a.99694.99694,0,0,1-.131-.26188.94625.94625,0,0,1-.04922-.31107,1.3991,1.3991,0,0,1,.19694-.70389,1.8611,1.8611,0,0,1,.5405-.58972,1.49024,1.49024,0,0,1,.76883-.27862,2.0119,2.0119,0,0,1,.573.01673,1.43047,1.43047,0,0,1,.47452.16341,1.67913,1.67913,0,0,1,.34359.26188.864.864,0,0,1,.21263.34359,1.36506,1.36506,0,0,1,.066.42527,1.24044,1.24044,0,0,1-.21263.68715,1.86544,1.86544,0,0,1-.573.5562,1.68018,1.68018,0,0,1-.78562.26188Zm2.78208-2.35681a.72376.72376,0,0,1-.47452.14769.38153.38153,0,0,1-.34359-.21263l-.066-.131a.29475.29475,0,0,1-.03246-.131v-.131a.36442.36442,0,0,1,.03246-.16341l.066-.131a.21031.21031,0,0,1,.09844-.09844l.09844-.131a.685.685,0,0,1,.507-.16341.41322.41322,0,0,1,.34359.26188.40479.40479,0,0,1,.08168.29434.80723.80723,0,0,1-.09844.31107,1.25023,1.25023,0,0,1-.21263.27862Zm11.62057-6.842a.685.685,0,0,0,.36032-.09844.81835.81835,0,0,0,.26188-.24509.84886.84886,0,0,0,.131-.31107.13385.13385,0,0,0,.03246-.09844q.39278-3.73212-2.61869-4.25583a4.62442,4.62442,0,0,0-1.63717-.03246.6685.6685,0,0,0-.39278.11413,1.03137,1.03137,0,0,0-.27862.29434.68064.68064,0,0,0-.11413.376.7552.7552,0,0,0,.2294.5562.7628.7628,0,0,0,.5562.2294q2.55372-.58972,2.74959,1.63717a2.75511,2.75511,0,0,1-.066,1.04748.7552.7552,0,0,0,.2294.5562.7628.7628,0,0,0,.5562.2294Zm-.5562-9.23027a9.85039,9.85039,0,0,0-3.863.131.097.097,0,0,0-.066.03246l-.03246.066-.03246.03246a1.06469,1.06469,0,0,0-.58972.40957,1.14452,1.14452,0,0,0,.09844,1.48948,1.07692,1.07692,0,0,0,.78562.32784h.09844a.75349.75349,0,0,0,.14769-.03246,1.712,1.712,0,0,1,.24509-.04922,1.50576,1.50576,0,0,0,.27862-.066q.14876-.04922.26188-.09844a1.29381,1.29381,0,0,1,.442-.04922,7.95964,7.95964,0,0,1,.80236.04922,4.82388,4.82388,0,0,1,1.04748.24509,8.4305,8.4305,0,0,1,1.14592.49125,5.40448,5.40448,0,0,1,1.14592.81808,5.60233,5.60233,0,0,1,.99823,1.21086,5.33,5.33,0,0,1,.32784,3.73212.147.147,0,0,1-.01673.066,1.05583,1.05583,0,0,0-.04922.16341q-.03249.12989-.066.24509a3.00843,3.00843,0,0,0-.066.29434,1.77426,1.77426,0,0,0-.03246.31107.74342.74342,0,0,0,.16341.49125.883.883,0,0,0,.40957.27862,1.81992,1.81992,0,0,0,.573.08168q.91655,0,1.07994-1.11346a9.70061,9.70061,0,0,0,.442-2.43852,7.44272,7.44272,0,0,0-.16341-2.04567,6.57493,6.57493,0,0,0-.6379-1.65289,5.54587,5.54587,0,0,0-.9825-1.30933,7.98711,7.98711,0,0,0-1.24439-.9825,8.25418,8.25418,0,0,0-1.32609-.70389,8.95553,8.95553,0,0,0-1.32609-.42527Z"/><path class="cls-1" d="M22,44A22,22,0,1,1,44,22,22.02489,22.02489,0,0,1,22,44ZM22,1A21,21,0,1,0,43,22,21.02422,21.02422,0,0,0,22,1Z"/></svg>