<?xml version="1.0" standalone="no"?><!DOCTYPE svg PUBLIC "-//W3C//DTD SVG 1.1//EN" "http://www.w3.org/Graphics/SVG/1.1/DTD/svg11.dtd"><svg t="1480904184742" class="icon" style="" viewBox="0 0 1024 1024" version="1.1" xmlns="http://www.w3.org/2000/svg" p-id="1986" xmlns:xlink="http://www.w3.org/1999/xlink" width="200" height="200"><defs><style type="text/css"></style></defs><path d="M366.983697 287.156092c-62.188364 62.247716-62.188364 163.17743 0 225.428216 62.189388 62.248739 163.016771 62.248739 225.206158 0 62.189388-62.250786 62.189388-163.181523 0-225.428216C529.999444 224.90633 429.172061 224.90633 366.983697 287.156092z" p-id="1987"></path><path d="M523.426749 37.392632c-223.319182 0-404.357398 181.037193-404.357398 404.358421 0 223.320205 181.038216 404.357398 404.357398 404.357398 223.321228 0 404.358421-181.037193 404.358421-404.357398C927.78517 218.429825 746.747977 37.392632 523.426749 37.392632zM746.296699 666.725944c-9.320273 9.326413-24.431435 9.326413-33.752732 0l-105.641015-105.748463c-80.375585 63.901379-197.612707 58.673307-271.934412-15.711843-79.961146-80.024591-79.961146-209.770608 0-289.793152 79.957053-80.025615 209.592552-80.025615 289.553699 0 74.16514 74.231655 79.521125 191.243649 16.086373 271.671423l105.689111 105.796558C755.617995 642.269949 755.617995 657.397485 746.296699 666.725944z" p-id="1988"></path></svg>