<?xml version="1.0" standalone="no"?><!DOCTYPE svg PUBLIC "-//W3C//DTD SVG 1.1//EN" "http://www.w3.org/Graphics/SVG/1.1/DTD/svg11.dtd"><svg t="1483631894059" class="icon" style="" viewBox="0 0 1024 1024" version="1.1" xmlns="http://www.w3.org/2000/svg" p-id="2025" xmlns:xlink="http://www.w3.org/1999/xlink" width="200" height="200"><defs><style type="text/css"></style></defs><path d="M622.816 702.72c-22.112-3.52-22.624-64.32-22.624-64.32s64.96-64.32 79.136-150.816c38.08 0 61.632-91.936 23.52-124.288 1.6-34.048 48.96-267.328-190.848-267.328s-192.448 233.28-190.88 267.328c-38.08 32.352-14.56 124.288 23.52 124.288 14.144 86.496 79.136 150.816 79.136 150.816s-0.512 60.8-22.624 64.32c-71.232 11.328-337.184 128.64-337.184 257.28l896 0c0-128.64-265.952-245.92-337.184-257.28z" p-id="2026" fill="#ffffff"></path></svg>