<svg id="图层_1" data-name="图层 1" xmlns="http://www.w3.org/2000/svg" viewBox="0 0 44 44"><defs><style>.cls-1{fill:#298cce;}.cls-2{fill:#d52b2a;}</style></defs><title>画板 14 副本 3</title><path class="cls-1" d="M22,44A22,22,0,1,1,44,22,22.02489,22.02489,0,0,1,22,44ZM22,1A21,21,0,1,0,43,22,21.02422,21.02422,0,0,0,22,1Z"/><path class="cls-2" d="M14.63862,35.19462a.17247.17247,0,0,1-.17186-.17189V34.0361a.62721.62721,0,0,1,.50178-.61422l4.81592-.96117a1.42155,1.42155,0,0,0,1.13566-1.38652V24.63241a.96434.96434,0,0,0-.69592-.92189l-2.23633-.63841a.17171.17171,0,0,1-.1252-.166V20.75514a1.76659,1.76659,0,0,1,.85245-1.50567.15361.15361,0,0,1,.05993-.02177,22.78353,22.78353,0,0,1,6.44223-.00054.15654.15654,0,0,1,.06522.02283,1.76722,1.76722,0,0,1,.85187,1.50567V22.9066a.17429.17429,0,0,1-.12466.16656l-2.23688.63841a.95958.95958,0,0,0-.69589.92189v6.44066a1.42248,1.42248,0,0,0,1.13514,1.38652l4.81641.96117a.62721.62721,0,0,1,.50178.61422v.98663a.17106.17106,0,0,1-.17131.17189H14.63862ZM27.55483,31.474a.1723.1723,0,0,1-.13684-.06788l-1.603-2.09526a.17494.17494,0,0,1,.05941-.261,8.54627,8.54627,0,1,0-7.74972.00109.17364.17364,0,0,1,.09016.11562.17772.17772,0,0,1-.03075.14431l-1.603,2.09417a.172.172,0,0,1-.13684.068.16569.16569,0,0,1-.08115-.02123,11.49489,11.49489,0,0,1,2.99538-21.206.27241.27241,0,0,0,.209-.24212A1.30387,1.30387,0,0,1,20.32069,8.926a11.6632,11.6632,0,0,1,1.6778-.12067,12.65762,12.65762,0,0,1,1.62949.10585.21584.21584,0,0,1,.05463.01645,1.30979,1.30979,0,0,1,.75007,1.07652.27115.27115,0,0,0,.208.24164,11.49382,11.49382,0,0,1,2.99753,21.2039A.15861.15861,0,0,1,27.55483,31.474Z"/></svg>