<svg id="图层_1" data-name="图层 1" xmlns="http://www.w3.org/2000/svg" viewBox="0 0 44 44"><defs><style>.cls-1{fill:#ec191b;}</style></defs><title>画板 14 副本 2</title><path class="cls-1" d="M22,44A22,22,0,1,1,44,22,22.02489,22.02489,0,0,1,22,44ZM22,1A21,21,0,1,0,43,22,21.02422,21.02422,0,0,0,22,1Z"/><path class="cls-1" d="M12.8,13.05556H31.2a2.27646,2.27646,0,0,1,2.29984,2.20927L22.00572,21.50923,10.5116,15.27088A2.266,2.266,0,0,1,12.8,13.05556Zm-2.28957,4.60633L10.5,28.70833a2.2754,2.2754,0,0,0,2.3,2.23611H31.2a2.2754,2.2754,0,0,0,2.3-2.23611v-11.052L22.27534,23.60882a.58945.58945,0,0,1-.55068,0Z"/></svg>