<?xml version="1.0" encoding="utf-8"?>
<!-- Generator: Adobe Illustrator 21.0.0, SVG Export Plug-In . SVG Version: 6.00 Build 0)  -->
<svg version="1.1" id="图层_1" xmlns="http://www.w3.org/2000/svg" xmlns:xlink="http://www.w3.org/1999/xlink" x="0px" y="0px"
	 viewBox="0 0 91 33" style="enable-background:new 0 0 91 33;" xml:space="preserve">
<style type="text/css">
	.st0{fill:#2D353A;}
	.st1{fill:none;stroke:#2D353A;stroke-miterlimit:10;}
	.st2{opacity:0.5;}
	.st3{fill:#C1C1C1;}
	.st4{fill:none;stroke:#C1C1C1;stroke-miterlimit:10;}
</style>
<g>
	
		<image style="overflow:visible;enable-background:new    ;" width="97" height="37" xlink:href="button_press_shadow.png"  transform="matrix(0.991 0 0 0.991 -2.5638 -1.8336)">
	</image>
</g>
<title>画板 5</title>
<g>
	<g id="图层_1_1_">
		<path class="st0" d="M16.5,0.5h58c8.8,0,16,7.2,16,16v0c0,8.8-7.2,16-16,16h-58c-8.8,0-16-7.2-16-16v0C0.5,7.7,7.7,0.5,16.5,0.5z"
			/>
		<path class="st1" d="M16.5,0.5h58c8.8,0,16,7.2,16,16v0c0,8.8-7.2,16-16,16h-58c-8.8,0-16-7.2-16-16v0C0.5,7.7,7.7,0.5,16.5,0.5z"
			/>
		<g>
			<g class="st2">
				<path class="st3" d="M16.5,0.5h58c8.8,0,16,7.2,16,16v0c0,8.8-7.2,16-16,16h-58c-8.8,0-16-7.2-16-16v0C0.5,7.7,7.7,0.5,16.5,0.5
					z"/>
				<path class="st4" d="M16.5,0.5h58c8.8,0,16,7.2,16,16v0c0,8.8-7.2,16-16,16h-58c-8.8,0-16-7.2-16-16v0C0.5,7.7,7.7,0.5,16.5,0.5
					z"/>
			</g>
		</g>
	</g>
</g>
</svg>
