<svg id="图层_1" data-name="图层 1" xmlns="http://www.w3.org/2000/svg" viewBox="0 0 44 44"><defs><style>.cls-1{fill:#1da1f2;}</style></defs><title>画板 14 副本 6</title><path class="cls-1" d="M22,44A22,22,0,1,1,44,22,22.02489,22.02489,0,0,1,22,44ZM22,1A21,21,0,1,0,43,22,21.02422,21.02422,0,0,0,22,1Z"/><path class="cls-1" d="M36.15,13.22271a11.60737,11.60737,0,0,1-3.33474.91406,5.82255,5.82255,0,0,0,2.5529-3.21224A11.62339,11.62339,0,0,1,31.681,12.33342a5.81174,5.81174,0,0,0-9.8941,5.296A16.48571,16.48571,0,0,1,9.81877,11.56264a5.81254,5.81254,0,0,0,1.79672,7.752,5.78412,5.78412,0,0,1-2.62985-.72612c-.00044.02432-.00044.04864-.00044.073A5.81014,5.81014,0,0,0,13.643,24.355a5.81027,5.81027,0,0,1-2.62189.0995,5.81181,5.81181,0,0,0,5.4242,4.03211,11.72125,11.72125,0,0,1-8.5962,2.40432A16.434,16.434,0,0,0,16.75,33.5c10.67991,0,16.52024-8.84782,16.52024-16.52068q0-.37743-.0168-.75132a11.79193,11.79193,0,0,0,2.89739-3.00573Z"/></svg>