<svg id="图层_1" data-name="图层 1" xmlns="http://www.w3.org/2000/svg" viewBox="0 0 44 44"><defs><style>.cls-1{fill:#e89214;}.cls-2{fill:#d52b2a;}.cls-3{fill:#ffd43f;}</style></defs><title>画板 14</title><path class="cls-1" d="M36.14709,15.71046a6.57452,6.57452,0,0,0-.63788-1.65289,5.5456,5.5456,0,0,0-.98254-1.30933,7.98314,7.98314,0,0,0-1.24438-.98248,8.25458,8.25458,0,0,0-1.326-.70392,8.95919,8.95919,0,0,0-1.32611-.42523h.001a9.85085,9.85085,0,0,0-3.8631.131.09692.09692,0,0,0-.066.03247l-.03247.066-.03241.03241a1.06461,1.06461,0,0,0-.58972.40961,1.14435,1.14435,0,0,0,.09845,1.48944,1.07677,1.07677,0,0,0,.78558.32788h.09845a.75148.75148,0,0,0,.14771-.03247,1.70627,1.70627,0,0,1,.24506-.04919,1.51284,1.51284,0,0,0,.27863-.066q.14877-.04926.2619-.09845a1.29305,1.29305,0,0,1,.442-.04926,7.95339,7.95339,0,0,1,.80237.04926,4.82346,4.82346,0,0,1,1.04749.24506,8.43865,8.43865,0,0,1,1.14594.49127,5.40507,5.40507,0,0,1,1.14587.81805,5.60331,5.60331,0,0,1,.99823,1.21088,5.33023,5.33023,0,0,1,.32788,3.73212.14674.14674,0,0,1-.01678.066,1.06349,1.06349,0,0,0-.04919.16345q-.0325.12982-.066.24506a3.01158,3.01158,0,0,0-.066.29437,1.77463,1.77463,0,0,0-.03247.311.74345.74345,0,0,0,.16339.49127.88318.88318,0,0,0,.40961.27863,1.8214,1.8214,0,0,0,.573.08167q.91653,0,1.0799-1.11346a9.69879,9.69879,0,0,0,.44208-2.43854A7.442,7.442,0,0,0,36.14709,15.71046Z"/><path class="cls-2" d="M30.87506,22.778a4.64428,4.64428,0,0,0-1.08-.72064,3.70233,3.70233,0,0,0-.89978-.29431l.00012.00293a1.05125,1.05125,0,0,1-.63794-.29437.30632.30632,0,0,1-.04919-.36029l.09845-.16339a.39356.39356,0,0,0,.066-.09845q.03351-.066.131-.27863a2.28,2.28,0,0,0,.14764-.42529,4.12519,4.12519,0,0,0,.08167-.52368,2.16939,2.16939,0,0,0-.01672-.58972,2.50972,2.50972,0,0,0-.1969-.60547,2.02289,2.02289,0,0,0-.40961-.58972,2.17988,2.17988,0,0,0-1.19513-.58972,4.455,4.455,0,0,0-1.47278-.01672,12.433,12.433,0,0,0-1.39105.29431q-.6546.18018-1.0799.34363l-.42529.197a4.13672,4.13672,0,0,1-.54047.13092.62092.62092,0,0,1-.32788-.01672.872.872,0,0,1-.18018-.09845q-.065-.04916-.04919-.22937t.03247-.3111q.01666-.13083.08167-.40955t.09845-.44208a5.19552,5.19552,0,0,0-.04926-.73633,3.595,3.595,0,0,0-.21265-.7688,1.65227,1.65227,0,0,0-.47449-.68719,2.44038,2.44038,0,0,0-.78564-.42523,3.03231,3.03231,0,0,0-1.22766-.09845,7.18175,7.18175,0,0,0-1.70215.39276,10.51034,10.51034,0,0,0-2.32428,1.16168,13.86507,13.86507,0,0,0-2.04565,1.60364q-.86728.83478-1.588,1.62042t-1.11346,1.27686l-.36035.52374a10.90481,10.90481,0,0,0-1.60364,2.81555,6.00471,6.00471,0,0,0-.49121,2.12744v.68713a7.03009,7.03009,0,0,0,2.79877,4.8288,10.63436,10.63436,0,0,0,2.50452,1.30933,16.352,16.352,0,0,0,2.76636.78564,24.33433,24.33433,0,0,0,2.79883.34357,16.91129,16.91129,0,0,0,5.02466-.376,15.18625,15.18625,0,0,0,4.84454-1.98077A8.06408,8.06408,0,0,0,31.57892,27.721a5.1659,5.1659,0,0,0,.573-2.16095,3.22792,3.22792,0,0,0-.34357-1.65289A4.20659,4.20659,0,0,0,30.87506,22.778Zm-5.98828,7.12152a10.517,10.517,0,0,1-5.97369,2.04565l-.001.0011a10.2182,10.2182,0,0,1-6.00623-1.37531,4.51285,4.51285,0,0,1-2.47095-3.89551,4.8322,4.8322,0,0,1,2.45526-4.0097,11.34454,11.34454,0,0,1,6.02295-1.84985A11.29072,11.29072,0,0,1,24.936,21.99427a4.07562,4.07562,0,0,1,2.45526,3.66608A5.32065,5.32065,0,0,1,24.88678,29.89948Z"/><path d="M21.89,24.15418A3.3164,3.3164,0,0,0,20.33557,23.09a5.07944,5.07944,0,0,0-2.37354-.21265l.001.001a5.42682,5.42682,0,0,0-1.70215.44208,3.81255,3.81255,0,0,0-1.17841.78558,4.99667,4.99667,0,0,0-.72064.949,3.61142,3.61142,0,0,0-.40955.99823,6.28088,6.28088,0,0,0-.14771.89978q-.0336.40851-.03247.63788l.03247.2619v.131a2.27483,2.27483,0,0,0,.066.39276,2.67041,2.67041,0,0,0,.18018.54053,2.47212,2.47212,0,0,0,.99829,1.03174,6.11687,6.11687,0,0,0,4.02643.63788,5.07556,5.07556,0,0,0,3.01141-1.88226,2.92805,2.92805,0,0,0,.60547-1.37531,3.86127,3.86127,0,0,0-.066-1.65289A4.20573,4.20573,0,0,0,21.89,24.15418Zm-3.74573,4.09143a1.86488,1.86488,0,0,1-.573.55621,1.68016,1.68016,0,0,1-.78558.2619l-.0011.002a1.50208,1.50208,0,0,1-.376.01672,1.40689,1.40689,0,0,1-.32782-.066q-.14877-.05026-.29437-.11414a.674.674,0,0,1-.24506-.18018q-.09952-.11627-.18018-.22943a.99563.99563,0,0,1-.131-.26184.9451.9451,0,0,1-.04919-.3111,1.39887,1.39887,0,0,1,.1969-.70386,1.86011,1.86011,0,0,1,.54053-.58972,1.48982,1.48982,0,0,1,.7688-.27863,2.0115,2.0115,0,0,1,.573.01672,1.43116,1.43116,0,0,1,.47455.16339,1.67946,1.67946,0,0,1,.34357.2619.86364.86364,0,0,1,.21265.34357,1.3659,1.3659,0,0,1,.066.42529A1.24015,1.24015,0,0,1,18.14429,28.24561Zm1.635-1.81439a1.25093,1.25093,0,0,1-.21265.27863l.00006-.00092a.72406.72406,0,0,1-.47455.14771.3815.3815,0,0,1-.34357-.21265l-.066-.131a.29443.29443,0,0,1-.03247-.13092v-.131a.36383.36383,0,0,1,.03247-.16339l.066-.131a.21018.21018,0,0,1,.09845-.09845l.09845-.13092a.68482.68482,0,0,1,.507-.16345.41323.41323,0,0,1,.34357.2619.40426.40426,0,0,1,.08167.29431A.8071.8071,0,0,1,19.7793,26.43122Z"/><path class="cls-1" d="M30.63013,19.63648a.76247.76247,0,0,0,.55615.22943l.001.001a.6853.6853,0,0,0,.36035-.09845.8187.8187,0,0,0,.2619-.24512.84859.84859,0,0,0,.13092-.311.13378.13378,0,0,0,.03247-.09845q.39276-3.73215-2.61871-4.25586a4.62324,4.62324,0,0,0-1.63715-.03241.66816.66816,0,0,0-.39276.11414,1.03016,1.03016,0,0,0-.27863.29431.68038.68038,0,0,0-.11414.376.78313.78313,0,0,0,.78558.78558q2.55368-.58969,2.74957,1.63721a2.75527,2.75527,0,0,1-.066,1.04749A.755.755,0,0,0,30.63013,19.63648Z"/><path class="cls-3" d="M22,44A22,22,0,1,1,44,22,22.02489,22.02489,0,0,1,22,44ZM22,1A21,21,0,1,0,43,22,21.02422,21.02422,0,0,0,22,1Z"/></svg>