<svg id="图层_1" data-name="图层 1" xmlns="http://www.w3.org/2000/svg" viewBox="0 0 44 44"><defs><style>.cls-1{fill:#0f88eb;}</style></defs><title>画板 14 副本</title><path class="cls-1" d="M22,44A22,22,0,1,1,44,22,22.02489,22.02489,0,0,1,22,44ZM22,1A21,21,0,1,0,43,22,21.02422,21.02422,0,0,0,22,1Z"/><path class="cls-1" d="M18.18033,24.90662V22.76587h4.601V21.23219h-4.601V15.09747h4.60006a2.10341,2.10341,0,0,0-1.53047-1.53368H14.97645a4.67084,4.67084,0,0,1,.91688-3.01682s-1.60454-.46887-2.15772,1.55635c-.059.21618-.74743,4.22431-2.45763,6.07455,1.20447-.02454,2.80064-.61213,3.63247-3.0804h1.7362v6.13472h-3.8382A1.42576,1.42576,0,0,0,11.278,22.76587h5.36865v1.28805a8.5443,8.5443,0,0,1-.13161,1.80783A11.57808,11.57808,0,0,1,10.50683,33.5a5.45828,5.45828,0,0,0,4.31975-1.62664,13.32586,13.32586,0,0,0,2.82914-4.01822,9.61333,9.61333,0,0,0,.48287-2.175A7.11411,7.11411,0,0,0,18.18033,24.90662Zm.77391,1.70629c-.53442-.60782-.89143-.46736-.78817,1.21841a1.87811,1.87811,0,0,0,.34874.71793c.59313.73839,1.858,2.3114,2.61852,3.24539.73444.87163,2.1153,1.85077,1.51144-.87969-.02047-.09248-.121-.48069-.87449-1.21309A39.04394,39.04394,0,0,1,18.95424,26.61291Zm4.594-13.816V31.20111h2.30052V33.5l3.81872-2.29889h3.06087l.76485-.762V12.79695Zm8.41128,16.11169v.75879H29.15731L26.61557,31.2043V29.66743H25.08189V14.33063h6.87757v14.578Z"/></svg>