<?xml version="1.0" encoding="utf-8"?>
<!-- Generator: Adobe Illustrator 21.0.0, SVG Export Plug-In . SVG Version: 6.00 Build 0)  -->
<svg version="1.1" id="图层_1" xmlns="http://www.w3.org/2000/svg" xmlns:xlink="http://www.w3.org/1999/xlink" x="0px" y="0px"
	 viewBox="0 0 180 180" style="enable-background:new 0 0 180 180;" xml:space="preserve">
<style type="text/css">
	.st0{fill:#E6E6E6;}
</style>
<title>画板 2</title>
<g>
	<g id="图层_1_1_">
		
			<image style="overflow:visible;opacity:0.75;enable-background:new    ;" width="162" height="172" xlink:href="baidu_logo_shadow.png"  transform="matrix(1 0 0 1 -1 8)">
		</image>
		<path class="st0" d="M48.4,83.5c14.1-3,12.2-19.9,11.8-23.6c-0.7-5.7-7.4-15.6-16.5-14.9c-11.4,1-13.1,17.6-13.1,17.6
			C29,70.2,34.3,86.5,48.4,83.5z M74.6,55.2c7.8,0,14.1-9,14.1-20.1C88.8,24,82.4,15,74.6,15c-7.8,0-14.1,9-14.1,20.1
			C60.5,46.2,66.8,55.2,74.6,55.2z M108.3,56.5c10.4,1.4,17.1-9.8,18.5-18.2c1.4-8.4-5.4-18.2-12.7-19.9
			c-7.4-1.7-16.6,10.2-17.5,17.9C95.5,45.7,97.8,55.2,108.3,56.5z M133.8,106.1c0,0-16.1-12.5-25.6-26c-12.8-19.9-30.9-11.8-37-1.7
			c-6,10.1-15.5,16.5-16.8,18.2C53.1,98.3,35,108.1,39,126s18.2,17.5,18.2,17.5c7.5,0.5,15.1,0,22.5-1.7c7.5-1.6,15.2-1.4,22.5,0.7
			c0,0,28.3,9.5,36-8.8C145.9,115.6,133.8,106.1,133.8,106.1L133.8,106.1z M149.6,70.7c0-4-3.4-16.2-15.8-16.2
			c-12.5,0-14.1,11.5-14.1,19.6c0,7.7,0.7,18.6,16.1,18.2S149.6,74.7,149.6,70.7L149.6,70.7z"/>
	</g>
</g>
</svg>
