<?xml version="1.0" encoding="utf-8"?>
<!-- Generator: Adobe Illustrator 21.0.0, SVG Export Plug-In . SVG Version: 6.00 Build 0)  -->
<svg version="1.1" id="图层_1" xmlns="http://www.w3.org/2000/svg" xmlns:xlink="http://www.w3.org/1999/xlink" x="0px" y="0px"
	 viewBox="0 0 645 216" style="enable-background:new 0 0 645 216;" xml:space="preserve">
<style type="text/css">
	.st0{fill:#E6E6E6;}
</style>
<title>画板 22</title>
<g>
	<g id="图层_1_1_">
		
			<image style="overflow:visible;opacity:0.75;enable-background:new    ;" width="439" height="172" xlink:href="google_logo_shadow.png"  transform="matrix(1 0 0 1 93 36)">
		</image>
		<path class="st0" d="M221.7,88.9h-46.3v13.7h32.8c-1.6,19.3-17.6,27.5-32.8,27.5c-19.9,0.1-36.1-16-36.2-35.9c0-0.2,0-0.4,0-0.6
			c0-20.8,16.1-36.8,36.3-36.8c9.2,0,18.1,3.5,24.7,9.9l9.6-10c0,0-12.3-13.7-34.8-13.7c-28.7,0-50.8,24.2-50.8,50.3
			c0.3,28.2,23.4,50.8,51.6,50.6c27,0,46.8-18.5,46.8-45.8C222.6,95,222.4,91.9,221.7,88.9L221.7,88.9z"/>
		<path class="st0" d="M259.6,79c-17.7-0.3-32.3,13.8-32.6,31.5c0,0.2,0,0.5,0,0.7c0,17.6,13.2,32.7,32.8,32.7
			c17.8,0,32.3-13.6,32.3-32.3C292.2,90,275.2,79,259.6,79z M259.8,91.7c9.3,0,18.2,7.5,18.2,19.7c0,11.9-8.8,19.7-18.2,19.7
			c-10.3,0-18.5-8.3-18.5-19.8C241.3,100.1,249.3,91.7,259.8,91.7L259.8,91.7z"/>
		<path class="st0" d="M330.5,79c-17.7-0.3-32.3,13.8-32.6,31.5c0,0.2,0,0.5,0,0.7c0,17.6,13.2,32.7,32.8,32.7
			c17.8,0,32.3-13.6,32.3-32.3C363,90,346.1,79,330.5,79L330.5,79z M330.7,91.7c9.3,0,18.2,7.5,18.2,19.7c0,11.9-8.8,19.7-18.2,19.7
			c-10.3,0-18.5-8.3-18.5-19.8C312.1,100.1,320.2,91.7,330.7,91.7L330.7,91.7z"/>
		<path class="st0" d="M400,79c-17.4,0-31.1,15.3-31.1,32.4c0,19.5,15.9,32.5,30.8,32.5c9.2,0,14.2-3.7,17.8-7.9v6.4
			c0,11.2-6.8,17.9-17,17.9c-9.9,0-14.9-7.4-16.6-11.5l-12.5,5.2c4.4,9.3,13.3,19.1,29.2,19.1c17.3,0,30.5-10.9,30.5-33.8V81h-13.6
			v5.5C413,81.6,406.7,78.8,400,79L400,79z M401.3,91.7c8.5,0,17.3,7.3,17.3,19.8c0,12.7-8.8,19.6-17.5,19.6
			c-9.3,0-17.9-7.5-17.9-19.5C383.2,99.1,392.1,91.7,401.3,91.7L401.3,91.7z"/>
		<path class="st0" d="M491.5,78.9c-16.4,0-30.2,13.1-30.2,32.4c0,20.4,15.4,32.5,31.8,32.5c13.7,0,22.1-7.5,27.2-14.2l-11.2-7.5
			c-2.9,4.5-7.8,8.9-15.9,8.9c-9.1,0-13.3-5-15.9-9.8l43.5-18l-2.3-5.3C514.3,87.6,504.5,78.9,491.5,78.9L491.5,78.9z M492.1,91.4
			c5.9,0,10.2,3.1,12,6.9l-29,12.1C473.8,101.1,482.7,91.4,492.1,91.4L492.1,91.4z"/>
		<path class="st0" d="M440.6,141.9h14.3V46.4h-14.3V141.9z"/>
	</g>
</g>
</svg>
