<svg id="layer_1" data-name="layer 1" xmlns="http://www.w3.org/2000/svg" viewBox="0 0 1190.55 841.89"><defs><style>.cls-1{fill:#040000;}</style></defs><title>画板 2</title><polygon class="cls-1" points="515.67 338.06 511.47 318.32 485.39 318.32 481.19 338.06 481.19 357.8 515.67 357.8 515.67 338.06"/><path class="cls-1" d="M759,359.77V189.27H744.91V357.8H752A13.94,13.94,0,0,1,759,359.77Z"/><path class="cls-1" d="M618.95,350.83a14.14,14.14,0,1,0-17.38-22.32L351.74,523.06l26,15.61Z"/><path class="cls-1" d="M551.1,596.35H1013l2.25-3.69a61.48,61.48,0,0,1,24-22.49H524.86a61.52,61.52,0,0,1,24,22.49Z"/><path class="cls-1" d="M1067.8,686.17H496.33a61.54,61.54,0,0,1-54.6-33.24H426.18a75.76,75.76,0,0,0,70.15,47.39H1067.8a75.78,75.78,0,0,0,75.33-68.61h-14.22A61.62,61.62,0,0,1,1067.8,686.17Z"/><path class="cls-1" d="M293.29,512.77,281.35,416a7,7,0,0,0-4.5-6L238.93,397.5c-3.71-1.22-7.91,1.41-9.38,5.87l-31.21,94.84c-2.5,2.52-81.47,116.22-108.58,149.94l-25.45,1.46c-3.27.19-6.13,2.88-7.2,6.38,0,.09-.07.14-.09.21s0,.21-.07.31-.06.23-.08.36c-1.1,4.26.67,8.48,4.21,9.65l178.54-10.32c3.71,1.22,7.91-1.41,9.38-5.88l43.86-133.26A10,10,0,0,0,293.29,512.77Z"/><path class="cls-1" d="M428.07,364.87a7.07,7.07,0,0,0-7.07,7.08v88.22l122.36-95.3Z"/><path class="cls-1" d="M898.94,357.8H906V189.28H891.86V359.77A14,14,0,0,1,898.94,357.8Z"/><path class="cls-1" d="M679.28,339.67h6.65V357.8h14.14V339.67h6.65a7.07,7.07,0,0,0,7.07-7.08V296.27a7.07,7.07,0,0,0-7.07-7.08H679.28a7.07,7.07,0,0,0-7.07,7.08v36.32A7.07,7.07,0,0,0,679.28,339.67Z"/><path class="cls-1" d="M1040.6,357.8h14.14V175.12a7.07,7.07,0,0,0-7.08-7.07H752a7.07,7.07,0,0,0-7.07,7.07v7.07h295.7Z"/><rect class="cls-1" x="485.39" y="242.53" width="26.07" height="68.72"/><rect class="cls-1" x="488.93" y="209.38" width="19.01" height="26.09"/><path class="cls-1" d="M496.33,570.17a54.24,54.24,0,0,0-38.9,16.38l16.31,9.8h69.07A54.37,54.37,0,0,0,496.33,570.17Z"/><path class="cls-1" d="M303.15,596.35l.26-.22a13.43,13.43,0,0,0,2.59-1.59l35.84-27.91-26-15.61-9.74,7.59-7.3-7.3-15.13,45Z"/><path class="cls-1" d="M759,445.71V371.94a7.08,7.08,0,0,0-7.07-7.08H612.43L421,514v59L313.28,508.21l-9.22,27.46,112.78,67.75H281.3l-14.25,42.44H1067.8a21.22,21.22,0,1,0,0-42.44h-596l-43.36-26c.74-1.07,1.49-2.13,2.28-3.16l2.89-3.37a82.92,82.92,0,0,1,38-25.14l.1,0q3.57-1.13,7.23-1.91c2.52-.54,5.08-1,7.67-1.29l1.46-.16c2.71-.26,5.45-.45,8.24-.45H1067.8a82.26,82.26,0,0,1,75.34,48.54V452.78H759Z"/><path class="cls-1" d="M1096.09,624.64a28.33,28.33,0,0,1-28.29,28.3h-46.47a54.43,54.43,0,1,0,92.1-58l.05,0-.18-.26c-.48-.73-1-1.43-1.53-2.15s-.91-1.25-1.39-1.87-1.13-1.35-1.72-2-1-1.11-1.49-1.65c-.65-.69-1.33-1.35-2-2-.47-.44-.93-.86-1.41-1.27-.79-.7-1.61-1.38-2.45-2-.36-.28-.73-.55-1.11-.83-1-.72-2-1.43-3-2.09l-.46-.27a54.28,54.28,0,0,0-75.38,17.81h46.47A28.32,28.32,0,0,1,1096.09,624.64Z"/><path class="cls-1" d="M1141.46,407.92,1105,367.81a9.8,9.8,0,0,0-7.25-2.94H899.87c-4.93,0-8.93,3.17-8.93,7.08v73.76h252.19V412.06A6.19,6.19,0,0,0,1141.46,407.92Z"/><path class="cls-1" d="M1013,652.94h-462l-2.25,3.69a61.57,61.57,0,0,1-24,22.48h514.42a61.54,61.54,0,0,1-24-22.48Z"/><path class="cls-1" d="M496.23,652.93H449.86a54.35,54.35,0,0,0,92.95,0H496.23Z"/><path class="cls-1" d="M1067.8,548.95H496.33A75.39,75.39,0,0,0,439,575.45l12.28,7.38a61.33,61.33,0,0,1,45.09-19.74H1067.8a61.62,61.62,0,0,1,61.11,54.48h14.23A75.78,75.78,0,0,0,1067.8,548.95Z"/></svg>